<svg xmlns="http://www.w3.org/2000/svg" xmlns:xlink="http://www.w3.org/1999/xlink" version="1.1" style="" xml:space="preserve" width="500" height="500"><rect id="backgroundrect" width="100%" height="100%" x="0" y="0" fill="none" stroke="none"/>



<g class="currentLayer" style=""><title>Layer 1</title><g id="svg_146">
</g><g id="svg_147" class="">
	<g id="svg_148">
		<path style="fill:#273577;" d="M475,241.439c0-81.074-100.726-147.162-224.988-147.162c-124.256,0-224.983,66.087-224.983,147.162    c0,2.091-0.029,7.878-0.029,8.616c0,86.005,88.043,155.668,224.979,155.668C387.769,405.723,475,336.079,475,250.071    C475,247.063,475,245.334,475,241.439z" id="svg_149"/>
		<path style="fill:#3FB6E9;" d="M466.386,241.367c0,76.431-96.855,138.391-216.334,138.391    c-119.481,0-216.326-61.96-216.326-138.391c0-76.439,96.846-138.402,216.326-138.402    C369.53,102.964,466.386,164.927,466.386,241.367z" id="svg_150"/>
		<g id="svg_151">
			<path style="fill:#FFFFFF;" d="M178.222,197.702c-0.116,0.217-2.274,2.451-0.876,4.246c3.419,4.361,13.959,6.861,24.621,4.471     c6.35-1.427,14.484-7.902,22.372-14.155c8.542-6.79,17.021-13.585,25.542-16.288c9.022-2.87,14.801-1.64,18.619-0.483     c4.193,1.25,9.117,4.006,16.976,9.905c14.803,11.127,74.33,63.08,84.609,72.064c8.281-3.744,45.087-19.588,95.112-30.617     c-4.343-26.667-20.57-51.063-45.171-71.043c-34.282,14.401-76.189,21.916-117.168,1.904     c-0.208-0.086-22.388-10.585-44.266-10.067c-32.508,0.753-46.589,14.826-61.499,29.722L178.222,197.702z" id="svg_152"/>
			<path style="fill:#FFFFFF;" d="M367.666,263.11c-0.696-0.621-69.99-61.249-85.682-73.048c-9.085-6.811-14.139-8.551-19.445-9.225     c-2.761-0.358-6.579,0.154-9.244,0.885c-7.302,1.986-16.85,8.371-25.326,15.092c-8.78,6.989-17.052,13.574-24.734,15.293     c-9.806,2.199-21.788-0.396-27.254-4.093c-2.218-1.489-3.776-3.208-4.526-4.958c-2.016-4.684,1.71-8.427,2.32-9.055l19.12-20.681     c2.219-2.218,4.46-4.437,6.751-6.624c-6.171,0.803-11.872,2.379-17.422,3.925c-6.927,1.949-13.59,3.8-20.332,3.798     c-2.816,0-17.897-2.473-20.756-3.252c-17.305-4.735-32.491-9.348-55.178-19.937c-27.178,20.234-45.359,45.536-50.608,73.405     c3.903,1.033,10.199,2.905,12.84,3.493c61.514,13.678,80.675,27.769,84.149,30.707c3.763-4.182,9.189-6.835,15.249-6.835     c6.809,0.008,12.941,3.429,16.667,8.713c3.526-2.781,8.384-5.158,14.664-5.156c2.851,0,5.814,0.528,8.801,1.542     c6.935,2.381,10.516,7.001,12.379,11.181c2.325-1.05,5.19-1.824,8.56-1.816c3.311,0,6.756,0.756,10.23,2.259     c11.34,4.866,13.11,16.008,12.078,24.408c0.808-0.097,1.62-0.133,2.446-0.133c13.446,0.006,24.381,10.937,24.381,24.391     c0,4.164-1.064,8.079-2.914,11.512c3.657,2.058,12.985,6.715,21.174,5.677c6.541-0.83,9.024-3.062,9.917-4.321     c0.609-0.863,1.253-1.872,0.649-2.596l-17.354-19.283c0,0-2.86-2.702-1.914-3.748c0.98-1.072,2.74,0.464,3.993,1.514     c8.835,7.377,19.62,18.513,19.62,18.513c0.179,0.116,0.899,1.524,4.886,2.238c3.436,0.615,9.508,0.261,13.719-3.191     c1.061-0.876,2.122-1.971,3.01-3.089c-0.066,0.046-0.127,0.126-0.191,0.155c4.437-5.684-0.493-11.43-0.493-11.43l-20.266-22.753     c0,0-2.894-2.679-1.913-3.758c0.884-0.934,2.749,0.476,4.016,1.532c6.42,5.365,15.487,14.465,24.169,22.973     c1.693,1.246,9.336,5.961,19.442-0.679c6.141-4.019,7.371-8.966,7.197-12.695c-0.427-4.936-4.28-8.456-4.28-8.456l-27.681-27.826     c0,0-2.923-2.501-1.884-3.764c0.837-1.06,2.743,0.47,3.984,1.514c8.821,7.377,32.691,29.259,32.691,29.259     c0.333,0.242,8.582,6.112,18.775-0.375c3.645-2.329,5.973-5.843,6.17-9.92C372.662,267.313,367.666,263.11,367.666,263.11z" id="svg_153"/>
			<path style="fill:#FFFFFF;" d="M233.409,298.388c-4.292-0.052-8.989,2.499-9.604,2.129c-0.336-0.226,0.264-1.948,0.667-2.94     c0.412-0.992,6.064-18-7.713-23.905c-10.543-4.53-16.983,0.565-19.202,2.866c-0.583,0.607-0.841,0.555-0.908-0.215     c-0.211-3.058-1.58-11.345-10.685-14.117c-13.002-3.988-21.364,5.094-23.486,8.367c-0.948-7.411-7.218-13.165-14.894-13.173     c-8.339-0.008-15.101,6.748-15.113,15.088c-0.002,8.336,6.756,15.097,15.098,15.097c4.051,0.013,7.729-1.611,10.437-4.211     c0.084,0.074,0.119,0.219,0.075,0.507c-0.635,3.733-1.803,17.304,12.403,22.824c5.7,2.209,10.545,0.569,14.561-2.249     c1.201-0.847,1.392-0.493,1.221,0.638c-0.514,3.491,0.136,10.96,10.61,15.204c7.971,3.236,12.686-0.081,15.777-2.934     c1.343-1.23,1.711-1.027,1.781,0.87c0.38,10.102,8.769,18.117,18.955,18.124c10.494,0.006,18.995-8.479,19.005-18.964     C252.401,306.896,243.899,298.504,233.409,298.388z" id="svg_154"/>
		</g>
		<path style="fill:#273577;" d="M370.342,255.855c-21.341-18.631-70.668-61.513-84.026-71.544    c-7.635-5.739-12.84-8.77-17.409-10.132c-2.056-0.62-4.895-1.326-8.551-1.329c-3.402,0-7.049,0.614-10.859,1.827    c-8.632,2.731-17.233,9.569-25.555,16.178l-0.427,0.34c-7.753,6.159-15.762,12.533-21.823,13.886    c-2.644,0.596-5.364,0.906-8.081,0.906c-6.785-0.011-12.886-1.967-15.174-4.886c-0.377-0.481-0.133-1.263,0.748-2.386l0.116-0.149    l18.775-20.235c14.71-14.705,28.6-28.589,60.572-29.327c0.531-0.014,1.071-0.022,1.601-0.022    c19.898,0.012,39.795,8.922,42.025,9.954c18.665,9.099,37.925,13.724,57.292,13.742c20.179,0.006,40.998-4.99,62.891-15.071    c-2.444-2.059-4.993-4.056-7.608-6.022c-19.231,8.338-37.554,12.553-55.227,12.546c-18.056-0.014-36.102-4.351-53.615-12.897    c-0.921-0.441-22.892-10.798-45.747-10.811c-0.597,0-1.209,0.013-1.807,0.02c-26.857,0.627-41.987,10.168-52.157,18.522    c-9.896,0.238-18.433,2.626-26.027,4.747c-6.777,1.883-12.631,3.519-18.341,3.514c-2.348,0-6.582-0.215-6.964-0.228    c-6.565-0.201-39.633-8.312-65.942-18.27c-2.688,1.901-5.272,3.863-7.789,5.863c27.483,11.268,60.931,19.983,71.486,20.667    c2.934,0.192,6.066,0.524,9.198,0.531c6.983,0,13.947-1.962,20.698-3.847c3.981-1.121,8.38-2.337,12.999-3.223    c-1.233,1.209-2.462,2.439-3.695,3.681l-19.082,20.635c-1.505,1.515-4.758,5.562-2.612,10.543c0.855,2.01,2.589,3.932,5.013,5.569    c4.55,3.059,12.69,5.129,20.251,5.135c2.866,0.001,5.579-0.285,8.078-0.847c7.994-1.795,16.384-8.473,25.268-15.538    c7.081-5.629,17.142-12.77,24.845-14.868c2.148-0.588,4.789-0.948,6.918-0.948c0.632,0.005,1.23,0.024,1.792,0.102    c5.086,0.647,10.007,2.378,18.79,8.97c15.655,11.763,84.957,72.382,85.633,72.983c0.052,0.039,4.465,3.851,4.158,10.187    c-0.165,3.53-2.127,6.671-5.535,8.85c-2.958,1.872-6.012,2.828-9.099,2.828c-4.631-0.01-7.819-2.18-8.024-2.327    c-0.256-0.207-23.998-21.979-32.732-29.29c-1.395-1.153-2.744-2.189-4.115-2.189c-0.73-0.006-1.377,0.304-1.812,0.853    c-1.375,1.694,0.165,4.038,1.977,5.58l27.738,27.876c0.035,0.033,3.451,3.24,3.827,7.514c0.217,4.622-1.989,8.483-6.582,11.5    c-3.274,2.151-6.591,3.247-9.833,3.247c-4.256,0-7.246-1.942-7.906-2.4l-3.982-3.922c-7.27-7.156-14.777-14.55-20.272-19.138    c-1.34-1.114-2.771-2.139-4.137-2.139c-0.67,0-1.28,0.249-1.747,0.739c-0.628,0.698-1.061,1.951,0.499,4.027    c0.641,0.853,1.398,1.561,1.398,1.561l20.243,22.727c0.168,0.203,4.172,4.959,0.452,9.703l-0.71,0.905    c-0.607,0.673-1.262,1.288-1.882,1.81c-3.451,2.837-8.064,3.143-9.888,3.143c-0.98,0-1.923-0.087-2.744-0.232    c-1.992-0.36-3.335-0.917-3.981-1.688l-0.25-0.249c-1.105-1.149-11.306-11.56-19.747-18.606c-1.113-0.932-2.499-2.11-3.935-2.11    c-0.707,0-1.342,0.278-1.826,0.818c-1.673,1.832,0.841,4.563,1.902,5.568l17.262,19.033c-0.021,0.174-0.241,0.57-0.658,1.172    c-0.618,0.847-2.711,2.94-8.975,3.736c-0.748,0.091-1.522,0.133-2.285,0.133c-6.46,0-13.344-3.133-16.896-5.017    c1.615-3.414,2.453-7.168,2.453-10.943c0.009-14.208-11.529-25.76-25.737-25.772c-0.301,0-0.623,0.012-0.931,0.023    c0.467-6.487-0.449-18.768-13.057-24.178c-3.625-1.572-7.246-2.369-10.764-2.369c-2.752,0-5.399,0.47-7.896,1.427    c-2.607-5.075-6.945-8.771-12.605-10.703c-3.123-1.081-6.235-1.628-9.238-1.628c-5.246,0-10.08,1.541-14.392,4.607    c-4.129-5.131-10.372-8.177-16.942-8.177c-5.745,0-11.277,2.303-15.374,6.359c-5.37-4.102-26.685-17.641-83.726-30.592    c-2.763-0.625-9.104-2.444-12.99-3.581c-0.644,3.087-1.134,6.21-1.459,9.361c0,0,10.523,2.52,12.593,2.982    c58.271,12.943,77.525,26.404,80.781,28.945c-1.102,2.646-1.675,5.506-1.681,8.386c-0.006,12.032,9.784,21.84,21.831,21.853    c1.352,0,2.688-0.116,4.008-0.36c1.813,8.856,7.609,15.573,16.47,19.016c2.586,0.998,5.207,1.507,7.777,1.507    c1.661,0.006,3.338-0.203,4.972-0.619c1.636,4.158,5.321,9.336,13.551,12.676c2.882,1.166,5.77,1.774,8.576,1.774    c2.291,0,4.533-0.399,6.669-1.195c3.945,9.609,13.327,15.979,23.795,15.979c6.933,0.006,13.593-2.818,18.451-7.818    c4.153,2.315,12.935,6.489,21.797,6.508c1.148,0,2.227-0.081,3.299-0.215c8.806-1.114,12.907-4.551,14.788-7.231    c0.336-0.466,0.644-0.963,0.905-1.474c2.082,0.592,4.367,1.079,6.985,1.085c4.808,0,9.421-1.636,14.09-5.034    c4.581-3.313,7.84-8.05,8.307-12.092c0.008-0.052,0.023-0.116,0.029-0.174c1.54,0.319,3.125,0.487,4.712,0.487    c4.95,0,9.816-1.549,14.47-4.592c8.977-5.887,10.537-13.577,10.389-18.604c1.572,0.329,3.178,0.499,4.77,0.499    c4.651,0,9.215-1.404,13.565-4.176c5.562-3.555,8.911-9.001,9.415-15.341c0.354-4.309-0.716-8.653-2.987-12.386    c15.038-6.479,49.413-19.02,89.89-28.141c-0.243-3.138-0.696-6.237-1.256-9.322C416.044,235.965,379.499,251.78,370.342,255.855z     M233.409,335.004c-9.511-0.01-17.242-7.394-17.59-16.811c-0.029-0.812-0.111-2.959-1.926-2.959c-0.748,0-1.395,0.447-2.143,1.12    c-2.09,1.942-4.755,3.909-8.644,3.909c-1.769,0-3.68-0.406-5.701-1.236c-10.044-4.065-10.18-10.966-9.769-13.738    c0.108-0.743,0.145-1.508-0.362-2.112l-0.614-0.551h-0.63c-0.514,0-1.035,0.209-1.749,0.714c-2.908,2.035-5.692,3.027-8.526,3.027    c-1.557,0-3.155-0.313-4.761-0.928c-13.222-5.15-12.175-17.631-11.532-21.389c0.099-0.758-0.092-1.35-0.577-1.741l-0.934-0.77    l-0.873,0.839c-2.578,2.485-5.95,3.841-9.494,3.841c-7.571-0.006-13.735-6.164-13.73-13.732c0.006-7.58,6.173-13.728,13.751-13.72    c6.843,0,12.671,5.147,13.547,11.984l0.467,3.686l2.024-3.116c0.23-0.368,5.777-8.759,15.981-8.748    c1.939,0,3.943,0.313,5.961,0.936c8.131,2.483,9.508,9.856,9.723,12.927c0.145,1.793,1.418,1.874,1.668,1.874    c0.702,0,1.221-0.441,1.586-0.83c1.534-1.601,4.877-4.261,10.111-4.261c2.389,0.004,4.938,0.569,7.569,1.704    c12.927,5.545,7.064,21.969,6.993,22.143c-1.113,2.721-1.153,3.922-0.11,4.617l0.51,0.238h0.371c0.586,0,1.311-0.25,2.506-0.656    c1.76-0.609,4.417-1.526,6.898-1.52h0.006c9.732,0.11,17.644,8.028,17.639,17.647    C251.044,327.111,243.128,335.004,233.409,335.004z" id="svg_155"/>
	</g>
</g></g></svg>